<svg id="eY6JmEtDUZO1" xmlns="http://www.w3.org/2000/svg" xmlns:xlink="http://www.w3.org/1999/xlink" viewBox="0 0 1024 392" shape-rendering="geometricPrecision" text-rendering="geometricPrecision">
<style><![CDATA[
#eY6JmEtDUZO4_to {animation: eY6JmEtDUZO4_to__to 3000ms linear 1 normal forwards}@keyframes eY6JmEtDUZO4_to__to { 0% {transform: translate(512px,256px);animation-timing-function: cubic-bezier(0.445,0.05,0.55,0.95)} 10% {transform: translate(512px,196px)} 100% {transform: translate(512px,196px)}} #eY6JmEtDUZO4 {animation: eY6JmEtDUZO4_c_o 3000ms linear 1 normal forwards}@keyframes eY6JmEtDUZO4_c_o { 0% {opacity: 0;animation-timing-function: cubic-bezier(0.445,0.05,0.55,0.95)} 6.666667% {opacity: 1} 100% {opacity: 1}}
]]></style>
<rect width="1024" height="392" rx="24" ry="24" fill="#fff"/><rect width="1024" height="392" rx="24" ry="24" fill="#d64836" fill-opacity="0.15"/><g id="eY6JmEtDUZO4_to" transform="translate(512,256)"><g id="eY6JmEtDUZO4" transform="translate(-512,-196)" opacity="0"><g><path d="M93.384,231h-14.304c-1.216,0-2.112-.256-2.688-.768-.512-.576-.768-1.472-.768-2.688v-62.208c0-1.216.256-2.08.768-2.592.576-.576,1.472-.864,2.688-.864h15.456c1.024,0,1.856.224,2.496.672.704.448,1.344,1.184,1.92,2.208l8.64,15.648c.32.576.576.992.768,1.248.256.256.576.384.96.384h.864c.384,0,.672-.128.864-.384.256-.256.544-.672.864-1.248l8.544-15.648c.576-1.024,1.184-1.76,1.824-2.208.704-.448,1.568-.672,2.592-.672h15.552c1.216,0,2.08.288,2.592.864.576.512.864,1.376.864,2.592v62.208c0,1.216-.288,2.112-.864,2.688-.512.512-1.376.768-2.592.768h-14.784c-1.216,0-2.112-.256-2.688-.768-.512-.576-.768-1.472-.768-2.688v-33.792l-5.664,10.464c-.576,1.088-1.28,1.888-2.112,2.4-.768.448-1.76.672-2.976.672h-3.84c-1.216,0-2.24-.224-3.072-.672-.768-.512-1.44-1.312-2.016-2.4L96.84,193.752v33.792c0,1.216-.288,2.112-.864,2.688-.512.512-1.376.768-2.592.768Zm122.269-18.144c0,2.944-.448,5.632-1.344,8.064-.832,2.368-2.368,4.416-4.608,6.144-2.176,1.664-5.216,2.976-9.12,3.936-3.84.96-8.736,1.44-14.688,1.44s-10.88-.48-14.784-1.44-6.976-2.272-9.216-3.936c-2.176-1.728-3.712-3.776-4.608-6.144-.832-2.432-1.248-5.12-1.248-8.064v-32.736c0-2.944.416-5.6,1.248-7.968.896-2.432,2.432-4.512,4.608-6.24c2.24-1.728,5.312-3.072,9.216-4.032s8.832-1.44,14.784-1.44s10.848.48,14.688,1.44c3.904.96,6.944,2.304,9.12,4.032c2.24,1.728,3.776,3.808,4.608,6.24.896,2.368,1.344,5.024,1.344,7.968v32.736ZM177.829,209.4c0,1.28.48,2.368,1.44,3.264.96.832,3.168,1.248,6.624,1.248s5.664-.416,6.624-1.248c.96-.896,1.44-1.984,1.44-3.264v-25.824c0-1.216-.48-2.24-1.44-3.072-.96-.896-3.168-1.344-6.624-1.344s-5.664.448-6.624,1.344c-.96.832-1.44,1.856-1.44,3.072v25.824ZM246.21,231h-14.88c-1.216,0-2.112-.256-2.688-.768-.512-.576-.768-1.472-.768-2.688v-62.208c0-1.216.256-2.08.768-2.592.576-.576,1.472-.864,2.688-.864h14.88c1.216,0,2.08.288,2.592.864.576.512.864,1.376.864,2.592v20.832h16.032v-20.832c0-1.216.256-2.08.768-2.592.576-.576,1.472-.864,2.688-.864h14.88c1.216,0,2.08.288,2.592.864.576.512.864,1.376.864,2.592v62.208c0,1.216-.288,2.112-.864,2.688-.512.512-1.376.768-2.592.768h-14.88c-1.216,0-2.112-.256-2.688-.768-.512-.576-.768-1.472-.768-2.688v-21.312h-16.032v21.312c0,1.216-.288,2.112-.864,2.688-.512.512-1.376.768-2.592.768Zm79.564-48.96l-4.512,14.592h15.072l-4.512-14.592c-.256-.576-.544-.992-.864-1.248-.256-.256-.576-.384-.96-.384h-2.4c-.384,0-.736.128-1.056.384-.256.256-.512.672-.768,1.248Zm-5.472,45.504c0,1.216-.288,2.112-.864,2.688-.512.512-1.376.768-2.592.768h-14.112c-1.216,0-2.112-.256-2.688-.768-.512-.576-.768-1.472-.768-2.688v-25.344c0-1.92.288-4.128.864-6.624.64-2.496,1.6-5.408,2.88-8.736l8.352-21.792c.384-1.088.96-1.888,1.728-2.4.832-.512,1.888-.768,3.168-.768h25.824c1.216,0,2.208.256,2.976.768.832.512,1.44,1.312,1.824,2.4l8.352,21.792c1.28,3.328,2.208,6.24,2.784,8.736.64,2.496.96,4.704.96,6.624v25.344c0,1.216-.288,2.112-.864,2.688-.512.512-1.376.768-2.592.768h-14.496c-1.28,0-2.24-.256-2.88-.768-.576-.576-.864-1.472-.864-2.688v-13.44h-16.992v13.44ZM388.603,231h-14.304c-1.216,0-2.112-.256-2.688-.768-.512-.576-.768-1.472-.768-2.688v-62.208c0-1.216.256-2.08.768-2.592.576-.576,1.472-.864,2.688-.864h15.456c1.024,0,1.856.224,2.496.672.704.448,1.344,1.184,1.92,2.208l8.64,15.648c.32.576.576.992.768,1.248.256.256.576.384.96.384h.864c.384,0,.672-.128.864-.384.256-.256.544-.672.864-1.248l8.544-15.648c.576-1.024,1.184-1.76,1.824-2.208.704-.448,1.568-.672,2.592-.672h15.552c1.216,0,2.08.288,2.592.864.576.512.864,1.376.864,2.592v62.208c0,1.216-.288,2.112-.864,2.688-.512.512-1.376.768-2.592.768h-14.784c-1.216,0-2.112-.256-2.688-.768-.512-.576-.768-1.472-.768-2.688v-33.792l-5.664,10.464c-.576,1.088-1.28,1.888-2.112,2.4-.768.448-1.76.672-2.976.672h-3.84c-1.216,0-2.24-.224-3.072-.672-.768-.512-1.44-1.312-2.016-2.4l-5.664-10.464v33.792c0,1.216-.288,2.112-.864,2.688-.512.512-1.376.768-2.592.768Zm81.469,0h-14.304c-1.216,0-2.112-.256-2.688-.768-.512-.576-.768-1.472-.768-2.688v-62.208c0-1.216.256-2.08.768-2.592.576-.576,1.472-.864,2.688-.864h15.456c1.024,0,1.856.224,2.496.672.704.448,1.344,1.184,1.92,2.208l8.64,15.648c.32.576.576.992.768,1.248.256.256.576.384.96.384h.864c.384,0,.672-.128.864-.384.256-.256.544-.672.864-1.248l8.544-15.648c.576-1.024,1.184-1.76,1.824-2.208.704-.448,1.568-.672,2.592-.672h15.552c1.216,0,2.08.288,2.592.864.576.512.864,1.376.864,2.592v62.208c0,1.216-.288,2.112-.864,2.688-.512.512-1.376.768-2.592.768h-14.784c-1.216,0-2.112-.256-2.688-.768-.512-.576-.768-1.472-.768-2.688v-33.792l-5.664,10.464c-.576,1.088-1.28,1.888-2.112,2.4-.768.448-1.76.672-2.976.672h-3.84c-1.216,0-2.24-.224-3.072-.672-.768-.512-1.44-1.312-2.016-2.4l-5.664-10.464v33.792c0,1.216-.288,2.112-.864,2.688-.512.512-1.376.768-2.592.768Zm111.708,0h-44.544c-1.216,0-2.112-.256-2.688-.768-.512-.576-.768-1.472-.768-2.688v-62.208c0-1.216.256-2.08.768-2.592.576-.576,1.472-.864,2.688-.864h44.544c1.216,0,2.08.288,2.592.864.576.512.864,1.376.864,2.592v11.232c0,1.216-.288,2.112-.864,2.688-.512.512-1.376.768-2.592.768h-26.496v7.392h18.72c1.216,0,2.08.288,2.592.864.576.512.864,1.376.864,2.592v10.272c0,1.216-.288,2.112-.864,2.688-.512.512-1.376.768-2.592.768h-18.72v8.256h26.496c1.216,0,2.08.288,2.592.864.576.512.864,1.376.864,2.592v11.232c0,1.216-.288,2.112-.864,2.688-.512.512-1.376.768-2.592.768Zm50.621,0h-32.352c-1.216,0-2.112-.256-2.688-.768-.512-.576-.768-1.472-.768-2.688v-62.208c0-1.216.256-2.08.768-2.592.576-.576,1.472-.864,2.688-.864h32.352c8,0,13.92,1.6,17.76,4.8c3.904,3.2,5.856,8.128,5.856,14.784v29.952c0,6.656-1.952,11.584-5.856,14.784-3.84,3.2-9.76,4.8-17.76,4.8Zm-14.016-50.784v32.64h11.424c1.536,0,2.656-.384,3.36-1.152.768-.768,1.152-1.952,1.152-3.552v-23.328c0-1.6-.384-2.752-1.152-3.456-.704-.768-1.824-1.152-3.36-1.152h-11.424ZM721.483,231h-15.552c-1.216,0-2.112-.256-2.688-.768-.512-.576-.768-1.472-.768-2.688v-47.136h-14.112c-1.216,0-2.112-.256-2.688-.768-.512-.576-.768-1.472-.768-2.688v-11.616c0-1.216.256-2.08.768-2.592.576-.576,1.472-.864,2.688-.864h50.688c1.216,0,2.08.288,2.592.864.576.512.864,1.376.864,2.592v11.616c0,1.216-.288,2.112-.864,2.688-.512.512-1.376.768-2.592.768h-14.112v47.136c0,1.216-.288,2.112-.864,2.688-.512.512-1.376.768-2.592.768Zm51.572-48.96l-4.512,14.592h15.072l-4.512-14.592c-.256-.576-.544-.992-.864-1.248-.256-.256-.576-.384-.96-.384h-2.4c-.384,0-.736.128-1.056.384-.256.256-.512.672-.768,1.248Zm-5.472,45.504c0,1.216-.288,2.112-.864,2.688-.512.512-1.376.768-2.592.768h-14.112c-1.216,0-2.112-.256-2.688-.768-.512-.576-.768-1.472-.768-2.688v-25.344c0-1.92.288-4.128.864-6.624.64-2.496,1.6-5.408,2.88-8.736l8.352-21.792c.384-1.088.96-1.888,1.728-2.4.832-.512,1.888-.768,3.168-.768h25.824c1.216,0,2.208.256,2.976.768.832.512,1.44,1.312,1.824,2.4l8.352,21.792c1.28,3.328,2.208,6.24,2.784,8.736.64,2.496.96,4.704.96,6.624v25.344c0,1.216-.288,2.112-.864,2.688-.512.512-1.376.768-2.592.768h-14.496c-1.28,0-2.24-.256-2.88-.768-.576-.576-.864-1.472-.864-2.688v-13.44h-16.992v13.44ZM836.46,231h-14.88c-1.216,0-2.112-.256-2.688-.768-.512-.576-.768-1.472-.768-2.688v-62.208c0-1.216.256-2.08.768-2.592.576-.576,1.472-.864,2.688-.864h14.88c1.216,0,2.08.288,2.592.864.576.512.864,1.376.864,2.592v20.832h16.032v-20.832c0-1.216.256-2.08.768-2.592.576-.576,1.472-.864,2.688-.864h14.88c1.216,0,2.08.288,2.592.864.576.512.864,1.376.864,2.592v62.208c0,1.216-.288,2.112-.864,2.688-.512.512-1.376.768-2.592.768h-14.88c-1.216,0-2.112-.256-2.688-.768-.512-.576-.768-1.472-.768-2.688v-21.312h-16.032v21.312c0,1.216-.288,2.112-.864,2.688-.512.512-1.376.768-2.592.768Zm79.564-48.96l-4.512,14.592h15.072l-4.512-14.592c-.256-.576-.544-.992-.864-1.248-.256-.256-.576-.384-.96-.384h-2.4c-.384,0-.736.128-1.056.384-.256.256-.512.672-.768,1.248Zm-5.472,45.504c0,1.216-.288,2.112-.864,2.688-.512.512-1.376.768-2.592.768h-14.112c-1.216,0-2.112-.256-2.688-.768-.512-.576-.768-1.472-.768-2.688v-25.344c0-1.92.288-4.128.864-6.624.64-2.496,1.6-5.408,2.88-8.736l8.352-21.792c.384-1.088.96-1.888,1.728-2.4.832-.512,1.888-.768,3.168-.768h25.824c1.216,0,2.208.256,2.976.768.832.512,1.44,1.312,1.824,2.4l8.352,21.792c1.28,3.328,2.208,6.24,2.784,8.736.64,2.496.96,4.704.96,6.624v25.344c0,1.216-.288,2.112-.864,2.688-.512.512-1.376.768-2.592.768h-14.496c-1.28,0-2.24-.256-2.88-.768-.576-.576-.864-1.472-.864-2.688v-13.44h-16.992v13.44Z" fill="#d64836"/><g mask="url(#eY6JmEtDUZO9)"><path d="M76.392,230.232l-2.9896,2.657.1563.176.1758.157l2.6575-2.99Zm0-67.488l-2.8284-2.828v0l2.8284,2.828Zm20.64-.192l-2.2938,3.277.0721.05.0742.048l2.1475-3.375Zm1.92,2.208l3.502-1.933-.008-.014-.008-.014-3.486,1.961Zm8.64,15.648l-3.502,1.933.005.01l3.497-1.943Zm.768,1.248l-3.2,2.4.171.227.201.201l2.828-2.828Zm2.688,0l-2.828-2.828-.201.201-.171.227l3.2,2.4Zm.864-1.248l3.497,1.943.007-.013.007-.013-3.511-1.917Zm8.544-15.648l-3.486-1.961-.013.022-.012.022l3.511,1.917Zm1.824-2.208l-2.147-3.375-.075.048-.072.05l2.294,3.277Zm20.736.192l-2.99,2.657.157.176.176.157l2.657-2.99Zm0,67.488l2.828,2.828v0l-2.828-2.828Zm-20.064,0l-2.99,2.657.157.176.176.157l2.657-2.99Zm-.768-36.48h4l-7.518-1.904l3.518,1.904Zm-5.664,10.464l-3.518-1.904-.009.016-.008.016l3.535,1.872Zm-2.112,2.4l2.015,3.455.041-.024.04-.024-2.096-3.407Zm-9.888,0l-2.219,3.328.157.105.166.089l1.896-3.522Zm-2.016-2.4l3.535-1.872-.008-.016-.009-.016-3.518,1.904ZM96.84,193.752l3.518-1.904-7.518,1.904h4Zm-.864,36.48l2.8284,2.828v0l-2.8284-2.828ZM93.384,227h-14.304v8h14.304v-8ZM79.08,227c-.1654,0-.2871-.009-.3707-.019-.0838-.01-.1186-.02-.1144-.019.0103.003.2098.063.4546.28l-5.315,5.98C75.3644,234.67,77.4231,235,79.08,235v-8Zm.3016.575c.2176.244.2775.444.2805.454.0012.004-.009-.03-.0192-.114-.0101-.084-.0189-.206-.0189-.371h-8c0,1.657.3296,3.716,1.7784,5.345l5.9792-5.314Zm.2424-.031v-62.208h-8v62.208h8Zm0-62.208c0-.166.0089-.283.018-.357.0093-.076.0171-.093.0092-.067-.0158.054-.1137.343-.4308.66l-5.6568-5.656c-1.6346,1.634-1.9396,3.822-1.9396,5.42h8Zm-.4036.236c-.1076.108-.2164.188-.3116.244-.0933.054-.1617.079-.1888.088-.0436.014.0528-.024.36-.024v-8c-1.7593,0-3.89.409-5.5164,2.036l5.6568,5.656Zm-.1404.308h15.456v-8h-15.456v8Zm15.456,0c.2247,0,.3318.025.3521.03.0132.004-.0519-.012-.1499-.081l4.5876-6.554c-1.4933-1.045-3.1979-1.395-4.7898-1.395v8Zm.3485.047c-.0322-.021.204.124.5812.794l6.9723-3.922c-.775-1.378-1.818-2.705-3.2585-3.622l-4.295,6.75Zm.5658.766l8.6397,15.648l7.004-3.866-8.64-15.648-7.0037,3.866Zm8.6447,15.658c.337.605.701,1.22,1.065,1.705l6.4-4.8c.005.007-.036-.049-.129-.2-.089-.144-.202-.338-.342-.591l-6.994,3.886Zm1.437,2.133c1.055,1.056,2.415,1.556,3.788,1.556v-8c.259,0,.594.045.958.19.368.147.675.362.91.598l-5.656,5.656Zm3.788,1.556h.864v-8h-.864v8Zm.864,0c1.36,0,2.961-.514,4.064-1.984l-6.4-4.8c.307-.409.726-.75,1.215-.967.467-.208.873-.249,1.121-.249v8Zm3.692-1.556c.652-.651,1.154-1.452,1.533-2.133l-6.994-3.886c-.114.206-.197.337-.248.41-.024.035-.034.048-.03.042.004-.004.031-.038.083-.089l5.656,5.656Zm1.547-2.159l8.544-15.648-7.022-3.834-8.544,15.648l7.022,3.834Zm8.519-15.604c.197-.35.363-.585.486-.733.123-.15.178-.181.146-.159l-4.588-6.554c-1.315.921-2.282,2.218-3.016,3.524l6.972,3.922Zm.485-.794c-.024.015-.022.007.033-.007.06-.016.19-.04.412-.04v-8c-1.611,0-3.262.357-4.739,1.297l4.294,6.75Zm.445-.047h15.552v-8h-15.552v8Zm15.552,0c.313,0,.382.04.295.011-.111-.037-.405-.166-.693-.49l5.98-5.314c-1.617-1.819-3.874-2.207-5.582-2.207v8Zm-.065-.146c-.324-.288-.453-.582-.49-.693-.029-.087.011-.018.011.295h8c0-1.708-.388-3.965-2.207-5.582l-5.314,5.98Zm-.479-.398v62.208h8v-62.208h-8Zm0,62.208c0,.307-.038.404-.024.36.009-.027.034-.095.088-.189.056-.095.136-.204.244-.311l5.656,5.656c1.627-1.626,2.036-3.757,2.036-5.516h-8Zm.308-.14c.317-.317.606-.415.66-.431.026-.008.009,0-.067.009-.074.009-.191.018-.357.018v8c1.598,0,3.786-.305,5.42-1.94l-5.656-5.656Zm.236-.404h-14.784v8h14.784v-8Zm-14.784,0c-.165,0-.287-.009-.371-.019-.083-.01-.118-.02-.114-.019.01.003.21.063.454.28l-5.314,5.98c1.629,1.448,3.688,1.778,5.345,1.778v-8Zm.302.575c.217.244.277.444.28.454.001.004-.009-.03-.019-.114s-.019-.206-.019-.371h-8c0,1.657.33,3.716,1.778,5.345l5.98-5.314Zm.242-.031v-33.792h-8v33.792h8Zm-7.518-35.696l-5.664,10.464l7.036,3.808l5.664-10.464-7.036-3.808Zm-5.681,10.496c-.328.62-.589.813-.673.865l4.192,6.814c1.58-.972,2.727-2.379,3.551-3.935l-7.07-3.744Zm-.592.817c.028-.017-.204.127-.961.127v8c1.675,0,3.427-.304,4.991-1.217l-4.03-6.91Zm-.961.127h-3.84v8h3.84v-8Zm-3.84,0c-.739,0-1.07-.137-1.176-.194l-3.792,7.044c1.558.839,3.275,1.15,4.968,1.15v-8Zm-.853,0c-.061-.041-.335-.254-.7-.944l-7.0702,3.744c.7872,1.486,1.8572,2.873,3.3322,3.856l4.438-6.656Zm-.717-.976l-5.664-10.464-7.0357,3.808l5.664,10.464l7.0357-3.808Zm-13.182-8.56v33.792h8v-33.792h-8Zm0,33.792c0,.307-.0381.404-.0241.36.0087-.027.0337-.095.0884-.189.0559-.095.1357-.204.2433-.311l5.6568,5.656c1.6266-1.626,2.0356-3.757,2.0356-5.516h-8Zm.3076-.14c.317-.317.6068-.415.66-.431.0267-.008.0089,0-.0662.009-.0747.009-.1915.018-.3574.018v8c1.5977,0,3.7858-.305,5.4204-1.94l-5.6568-5.656ZM214.309,220.92l-3.754-1.383-.01.029-.01.028l3.774,1.326Zm-4.608,6.144l2.43,3.177.006-.005.007-.005-2.443-3.167ZM200.581,231l-.955-3.884-.008.002-.007.001.97,3.881Zm-29.472,0l-.955,3.884v0l.955-3.884Zm-9.216-3.936l-2.488,3.132.051.041.051.038l2.386-3.211Zm-4.608-6.144l-3.785,1.295.021.061.023.06l3.741-1.416Zm0-48.768l-3.754-1.383-.01.029-.01.028l3.774,1.326Zm4.608-6.24l-2.443-3.167-.023.017-.022.018l2.488,3.132Zm9.216-4.032l-.955-3.884v0l.955,3.884Zm29.472,0l-.97,3.881.007.001.008.002.955-3.884Zm9.12,4.032l-2.488,3.132.022.018.023.017l2.443-3.167Zm4.608,6.24l-3.785,1.295.021.061.023.06l3.741-1.416Zm-35.04,40.512l-2.73,2.924.054.05.056.049l2.62-3.023Zm13.248,0l2.619,3.023.056-.049.054-.05-2.729-2.924Zm0-32.16l-2.73,2.924.054.05.056.049l2.62-3.023Zm-13.248,0l2.619,3.023.056-.049.054-.05-2.729-2.924Zm32.384,32.352c0,2.536-.385,4.748-1.098,6.681l7.507,2.766c1.08-2.931,1.591-6.095,1.591-9.447h-8Zm-1.118,6.738c-.544,1.549-1.569,2.985-3.277,4.303l4.886,6.334c2.772-2.138,4.819-4.798,5.939-7.985l-7.548-2.652Zm-3.264,4.293c-1.583,1.21-4.047,2.344-7.645,3.229l1.91,7.768c4.21-1.035,7.826-2.525,10.595-4.643l-4.86-6.354Zm-7.66,3.232c-3.407.852-7.947,1.321-13.718,1.321v8c6.132,0,11.385-.491,15.658-1.559l-1.94-7.762Zm-13.718,1.321c-5.769,0-10.348-.468-13.829-1.324l-1.91,7.768c4.327,1.064,9.603,1.556,15.739,1.556v-8Zm-13.829-1.324c-3.597-.885-6.118-2.024-7.786-3.263l-4.771,6.422c2.812,2.089,6.435,3.574,10.647,4.609l1.91-7.768Zm-7.684-3.184c-1.667-1.325-2.738-2.799-3.354-4.428l-7.482,2.832c1.175,3.107,3.177,5.729,5.861,7.86l4.975-6.264Zm-3.311-4.307c-.67-1.959-1.032-4.203-1.032-6.769h-8c0,3.322.469,6.454,1.463,9.359l7.569-2.59Zm-1.032-6.769v-32.736h-8v32.736h8Zm0-32.736c0-2.569.363-4.767,1.022-6.642l-7.548-2.652c-1.005,2.861-1.474,5.975-1.474,9.294h8Zm1.001-6.585c.624-1.694,1.698-3.184,3.342-4.491l-4.975-6.264c-2.707,2.149-4.706,4.819-5.874,7.989l7.507,2.766Zm3.298-4.456c1.655-1.276,4.153-2.436,7.728-3.315l-1.91-7.768c-4.234,1.041-7.879,2.569-10.704,4.749l4.886,6.334Zm7.728-3.315c3.481-.856,8.06-1.324,13.829-1.324v-8c-6.136,0-11.412.492-15.739,1.556l1.91,7.768Zm13.829-1.324c5.771,0,10.311.469,13.718,1.321l1.94-7.762c-4.273-1.068-9.526-1.559-15.658-1.559v8Zm13.733,1.324c3.575.88,6.017,2.033,7.587,3.28l4.975-6.264c-2.781-2.209-6.42-3.744-10.652-4.784l-1.91,7.768Zm7.632,3.315c1.684,1.299,2.713,2.752,3.266,4.368l7.569-2.59c-1.111-3.248-3.153-5.955-5.949-8.112l-4.886,6.334Zm3.31,4.489c.699,1.848,1.085,4.014,1.085,6.552h8c0-3.35-.511-6.496-1.603-9.384l-7.482,2.832Zm1.085,6.552v32.736h8v-32.736h-8ZM173.829,209.4c0,2.421.964,4.558,2.71,6.188l5.459-5.848c-.066-.062-.103-.107-.122-.134-.019-.025-.025-.04-.028-.045-.002-.004-.005-.013-.009-.032s-.01-.06-.01-.129h-8Zm2.82,6.287c1.284,1.113,2.918,1.592,4.255,1.844c1.441.271,3.13.381,4.989.381v-8c-1.597,0-2.741-.098-3.508-.243-.87-.164-.821-.309-.497-.028l-5.239,6.046Zm9.244,2.225c1.859,0,3.547-.11,4.988-.381c1.338-.252,2.971-.731,4.255-1.844l-5.239-6.046c.324-.281.374-.136-.497.028-.767.145-1.91.243-3.507.243v8Zm9.353-2.324c1.747-1.63,2.711-3.767,2.711-6.188h-8c0,.069-.007.11-.011.129-.003.019-.007.028-.009.032-.002.005-.009.02-.027.045-.02.027-.057.072-.123.134l5.459,5.848Zm2.711-6.188v-25.824h-8v25.824h8Zm0-25.824c0-2.434-1.029-4.542-2.821-6.095l-5.239,6.046c.057.05.083.081.089.089.006.007-.001,0-.011-.022s-.017-.043-.019-.056c-.003-.012.001-.002.001.038h8Zm-2.711-5.996c-1.282-1.196-2.938-1.726-4.31-2.004-1.465-.297-3.173-.416-5.043-.416v8c1.586,0,2.71.105,3.452.256.837.17.764.312.442.012l5.459-5.848Zm-9.353-2.42c-1.87,0-3.578.119-5.044.416-1.371.278-3.028.808-4.31,2.004l5.459,5.848c-.322.3-.394.158.442-.012.743-.151,1.867-.256,3.453-.256v-8Zm-9.244,2.321c-1.792,1.553-2.82,3.661-2.82,6.095h8c0-.04.003-.05.001-.038-.003.013-.009.034-.019.056-.011.022-.018.029-.012.022.007-.008.032-.039.089-.089l-5.239-6.046Zm-2.82,6.095v25.824h8v-25.824h-8Zm54.813,46.656l-2.99,2.657.157.176.176.157l2.657-2.99Zm0-67.488l-2.828-2.828v0l2.828,2.828Zm20.16,0l-2.99,2.657.157.176.176.157l2.657-2.99Zm.864,23.424h-4v4h4v-4Zm16.032,0v4h4v-4h-4Zm.768-23.424l-2.828-2.828v0l2.828,2.828Zm20.16,0l-2.99,2.657.157.176.176.157l2.657-2.99Zm0,67.488l2.828,2.828v0l-2.828-2.828Zm-20.16,0l-2.99,2.657.157.176.176.157l2.657-2.99Zm-.768-24h4v-4h-4v4Zm-16.032,0v-4h-4v4h4Zm-.864,24l-2.828-2.828v0l2.828,2.828ZM246.21,227h-14.88v8h14.88v-8Zm-14.88,0c-.165,0-.287-.009-.371-.019s-.118-.02-.114-.019c.01.003.21.063.454.28l-5.314,5.98c1.629,1.448,3.688,1.778,5.345,1.778v-8Zm.302.575c.217.244.277.444.28.454.001.004-.009-.03-.019-.114s-.019-.206-.019-.371h-8c0,1.657.33,3.716,1.778,5.345l5.98-5.314Zm.242-.031v-62.208h-8v62.208h8Zm0-62.208c0-.166.009-.283.018-.357.009-.076.017-.093.009-.067-.016.054-.114.343-.431.66l-5.656-5.656c-1.635,1.634-1.94,3.822-1.94,5.42h8Zm-.404.236c-.107.108-.216.188-.311.244-.094.054-.162.079-.189.088-.044.014.053-.024.36-.024v-8c-1.759,0-3.89.409-5.516,2.036l5.656,5.656Zm-.14.308h14.88v-8h-14.88v8Zm14.88,0c.313,0,.382.04.295.011-.111-.037-.405-.166-.693-.49l5.98-5.314c-1.617-1.819-3.874-2.207-5.582-2.207v8Zm-.065-.146c-.324-.288-.453-.582-.49-.693-.029-.087.011-.018.011.295h8c0-1.708-.388-3.965-2.207-5.582l-5.314,5.98Zm-.479-.398v20.832h8v-20.832h-8Zm4,24.832h16.032v-8h-16.032v8Zm20.032-4v-20.832h-8v20.832h8Zm0-20.832c0-.166.009-.283.018-.357.009-.076.017-.093.009-.067-.016.054-.114.343-.431.66l-5.656-5.656c-1.635,1.634-1.94,3.822-1.94,5.42h8Zm-.404.236c-.107.108-.216.188-.311.244-.094.054-.162.079-.189.088-.044.014.053-.024.36-.024v-8c-1.759,0-3.89.409-5.516,2.036l5.656,5.656Zm-.14.308h14.88v-8h-14.88v8Zm14.88,0c.313,0,.382.04.295.011-.111-.037-.405-.166-.693-.49l5.98-5.314c-1.617-1.819-3.874-2.207-5.582-2.207v8Zm-.065-.146c-.324-.288-.453-.582-.49-.693-.029-.087.011-.018.011.295h8c0-1.708-.388-3.965-2.207-5.582l-5.314,5.98Zm-.479-.398v62.208h8v-62.208h-8Zm0,62.208c0,.307-.038.404-.024.36.009-.027.034-.095.088-.189.056-.095.136-.204.244-.311l5.656,5.656c1.627-1.626,2.036-3.757,2.036-5.516h-8Zm.308-.14c.317-.317.606-.415.66-.431.026-.008.009,0-.067.009-.074.009-.191.018-.357.018v8c1.598,0,3.786-.305,5.42-1.94l-5.656-5.656Zm.236-.404h-14.88v8h14.88v-8Zm-14.88,0c-.165,0-.287-.009-.371-.019s-.118-.02-.114-.019c.01.003.21.063.454.28l-5.314,5.98c1.629,1.448,3.688,1.778,5.345,1.778v-8Zm.302.575c.217.244.277.444.28.454.001.004-.009-.03-.019-.114s-.019-.206-.019-.371h-8c0,1.657.33,3.716,1.778,5.345l5.98-5.314Zm.242-.031v-21.312h-8v21.312h8Zm-4-25.312h-16.032v8h16.032v-8Zm-20.032,4v21.312h8v-21.312h-8Zm0,21.312c0,.307-.038.404-.024.36.009-.027.034-.095.088-.189.056-.095.136-.204.244-.311l5.656,5.656c1.627-1.626,2.036-3.757,2.036-5.516h-8Zm.308-.14c.317-.317.606-.415.66-.431.026-.008.009,0-.067.009-.074.009-.191.018-.357.018v8c1.598,0,3.786-.305,5.42-1.94l-5.656-5.656Zm79.8-45.364l-3.655-1.625-.097.217-.07.226l3.822,1.182Zm-4.512,14.592l-3.822-1.182-1.602,5.182h5.424v-4Zm15.072,0v4h5.423l-1.602-5.182-3.821,1.182Zm-4.512-14.592l3.821-1.182-.07-.226-.096-.217-3.655,1.625Zm-.864-1.248l-2.829,2.828.157.157.173.138l2.499-3.123Zm-4.416,0l-2.499-3.123-.173.138-.157.157l2.829,2.828Zm-7.104,49.44l-2.829-2.828v0l2.829,2.828Zm-19.392,0l-2.99,2.657.156.176.176.157l2.658-2.99Zm.096-34.656l-3.875-.994-.012.047-.011.048l3.898.899Zm2.88-8.736l3.733,1.436.002-.004-3.735-1.432Zm8.352-21.792l3.735,1.432.019-.05.018-.051-3.772-1.331Zm1.728-2.4l-2.097-3.407-.062.038-.06.041l2.219,3.328Zm31.968,0l-2.219,3.328.06.041.062.038l2.097-3.407Zm1.824,2.4l-3.772,1.331.018.051.019.05l3.735-1.432Zm8.352,21.792l-3.735,1.432.001.004l3.734-1.436Zm2.784,8.736l-3.898.899.011.048.012.047l3.875-.994Zm.096,34.656l2.828,2.828v0l-2.828-2.828Zm-19.968,0l-2.829,2.828.157.157.173.138l2.499-3.123Zm-.864-16.128h4v-4h-4v4Zm-16.992,0v-4h-4v4h4Zm1.65-33.246L317.44,195.45l7.643,2.364l4.512-14.592-7.643-2.364Zm-.69,19.774h15.072v-8h-15.072v8Zm18.893-5.182l-4.512-14.592L328,183.222l4.512,14.592l7.643-2.364Zm-4.678-15.035c-.389-.874-1.003-1.932-2.02-2.746l-4.998,6.246c-.204-.163-.307-.303-.334-.342-.028-.04-.009-.021.042.092l7.31-3.25Zm-1.691-2.451c-1.055-1.056-2.415-1.556-3.788-1.556v8c-.259,0-.594-.045-.958-.19-.368-.147-.675-.362-.911-.598l5.657-5.656Zm-3.788-1.556h-2.4v8h2.4v-8Zm-2.4,0c-1.356,0-2.577.478-3.555,1.261l4.998,6.246c-.149.119-.358.25-.628.348-.274.1-.553.145-.815.145v-8Zm-3.885,1.556c-.769.769-1.264,1.709-1.594,2.451l7.31,3.25c.036-.082.067-.146.091-.192.025-.048.04-.073.044-.081.005-.008-.005.01-.033.046-.027.036-.079.101-.161.182l-5.657-5.656Zm-7.411,49.58c0,.307-.038.404-.024.36.008-.027.033-.095.088-.189.056-.095.136-.204.243-.311l5.657,5.656c1.627-1.626,2.036-3.757,2.036-5.516h-8Zm.307-.14c.317-.317.607-.415.66-.431.027-.008.009,0-.066.009s-.191.018-.357.018v8c1.597,0,3.786-.305,5.42-1.94l-5.657-5.656Zm.237-.404h-14.112v8h14.112v-8Zm-14.112,0c-.166,0-.287-.009-.371-.019s-.119-.02-.114-.019c.01.003.209.063.454.28l-5.315,5.98c1.63,1.448,3.689,1.778,5.346,1.778v-8Zm.301.575c.218.244.278.444.281.454.001.004-.009-.03-.019-.114s-.019-.206-.019-.371h-8c0,1.657.329,3.716,1.778,5.345l5.979-5.314Zm.243-.031v-25.344h-8v25.344h8Zm0-25.344c0-1.536.232-3.432.761-5.725l-7.795-1.798c-.623,2.699-.966,5.219-.966,7.523h8Zm.738-5.63c.591-2.302,1.495-5.06,2.739-8.294l-7.467-2.872c-1.316,3.422-2.331,6.488-3.021,9.178l7.749,1.988Zm2.741-8.298l8.352-21.792-7.47-2.864-8.352,21.792l7.47,2.864Zm8.389-21.893c.086-.245.162-.366.194-.41.027-.037.022-.02-.019.007l-4.438-6.656c-1.652,1.101-2.682,2.7-3.281,4.397l7.544,2.662Zm.052-.324c.034-.021.307-.175,1.072-.175v-8c-1.796,0-3.635.358-5.265,1.361l4.193,6.814Zm1.072-.175h25.824v-8h-25.824v8Zm25.824,0c.673,0,.825.142.757.096l4.438-6.656c-1.604-1.07-3.436-1.44-5.195-1.44v8Zm.879.175c-.016-.011-.022-.021-.008-.003.019.025.083.118.157.327l7.544-2.662c-.631-1.788-1.753-3.401-3.5-4.476l-4.193,6.814Zm.186.425l8.352,21.792l7.47-2.864-8.352-21.792-7.47,2.864Zm8.353,21.796c1.237,3.215,2.099,5.941,2.62,8.199l7.795-1.798c-.631-2.734-1.625-5.832-2.948-9.273l-7.467,2.872Zm2.643,8.294c.583,2.274.835,4.137.835,5.63h8c0-2.347-.389-4.9-1.086-7.618l-7.749,1.988Zm.835,5.63v25.344h8v-25.344h-8Zm0,25.344c0,.307-.038.404-.024.36.008-.027.033-.095.088-.189.056-.095.136-.204.243-.311l5.657,5.656c1.627-1.626,2.036-3.757,2.036-5.516h-8Zm.307-.14c.317-.317.607-.415.66-.431.027-.008.009,0-.066.009s-.191.018-.357.018v8c1.597,0,3.786-.305,5.42-1.94l-5.657-5.656Zm.237-.404h-14.496v8h14.496v-8Zm-14.496,0c-.387,0-.586-.04-.65-.057-.055-.015.074.01.269.166l-4.998,6.246c1.651,1.321,3.671,1.645,5.379,1.645v-8Zm-.052.404c.108.107.188.216.243.311.055.094.08.162.089.189.014.044-.024-.053-.024-.36h-8c0,1.759.409,3.89,2.035,5.516l5.657-5.656Zm.308.14v-13.44h-8v13.44h8Zm-4-17.44h-16.992v8h16.992v-8Zm-20.992,4v13.44h8v-13.44h-8Zm55.309,16.128l-2.99,2.657.156.176.176.157l2.658-2.99Zm0-67.488l-2.829-2.828v0l2.829,2.828Zm20.64-.192l-2.294,3.277.072.05.074.048l2.148-3.375Zm1.92,2.208l3.501-1.933-.007-.014-.008-.014-3.486,1.961Zm8.64,15.648l-3.502,1.933.005.01l3.497-1.943Zm.768,1.248l-3.2,2.4.17.227.201.201l2.829-2.828Zm2.688,0l-2.829-2.828-.201.201-.17.227l3.2,2.4Zm.864-1.248l3.496,1.943.007-.013.008-.013-3.511-1.917Zm8.544-15.648l-3.487-1.961-.012.022-.012.022l3.511,1.917Zm1.824-2.208l-2.148-3.375-.074.048-.072.05l2.294,3.277Zm20.736.192l-2.99,2.657.156.176.176.157l2.658-2.99Zm0,67.488l2.828,2.828v0l-2.828-2.828Zm-20.064,0l-2.99,2.657.156.176.176.157l2.658-2.99Zm-.768-36.48h4l-7.518-1.904l3.518,1.904Zm-5.664,10.464l-3.518-1.904-.009.016-.008.016l3.535,1.872Zm-2.112,2.4l2.015,3.455.041-.024.04-.024-2.096-3.407Zm-9.888,0l-2.219,3.328.157.105.165.089l1.897-3.522Zm-2.016-2.4l3.535-1.872-.009-.016-.009-.016-3.517,1.904Zm-5.664-10.464l3.517-1.904-7.517,1.904h4Zm-.864,36.48l2.828,2.828v0l-2.828-2.828ZM388.603,227h-14.304v8h14.304v-8Zm-14.304,0c-.166,0-.287-.009-.371-.019s-.119-.02-.114-.019c.01.003.209.063.454.28l-5.315,5.98c1.63,1.448,3.689,1.778,5.346,1.778v-8Zm.301.575c.218.244.278.444.281.454.001.004-.009-.03-.019-.114s-.019-.206-.019-.371h-8c0,1.657.329,3.716,1.778,5.345l5.979-5.314Zm.243-.031v-62.208h-8v62.208h8Zm0-62.208c0-.166.009-.283.018-.357.009-.076.017-.093.009-.067-.016.054-.114.343-.431.66l-5.657-5.656c-1.634,1.634-1.939,3.822-1.939,5.42h8Zm-.404.236c-.107.108-.216.188-.311.244-.094.054-.162.079-.189.088-.044.014.053-.024.36-.024v-8c-1.76,0-3.89.409-5.517,2.036l5.657,5.656Zm-.14.308h15.456v-8h-15.456v8Zm15.456,0c.224,0,.332.025.352.03.013.004-.052-.012-.15-.081l4.588-6.554c-1.494-1.045-3.198-1.395-4.79-1.395v8Zm.348.047c-.032-.021.204.124.581.794l6.973-3.922c-.775-1.378-1.819-2.705-3.259-3.622l-4.295,6.75Zm.566.766l8.64,15.648l7.003-3.866-8.64-15.648-7.003,3.866Zm8.645,15.658c.336.605.701,1.22,1.065,1.705l6.4-4.8c.005.007-.036-.049-.13-.2-.088-.144-.201-.338-.342-.591l-6.993,3.886Zm1.436,2.133c1.056,1.056,2.415,1.556,3.789,1.556v-8c.259,0,.594.045.957.19.368.147.676.362.911.598l-5.657,5.656Zm3.789,1.556h.864v-8h-.864v8Zm.864,0c1.36,0,2.961-.514,4.064-1.984l-6.4-4.8c.307-.409.726-.75,1.215-.967.467-.208.873-.249,1.121-.249v8Zm3.692-1.556c.651-.651,1.154-1.452,1.532-2.133l-6.993-3.886c-.114.206-.197.337-.248.41-.024.035-.035.048-.03.042.003-.004.031-.038.082-.089l5.657,5.656Zm1.547-2.159l8.544-15.648-7.022-3.834-8.544,15.648l7.022,3.834Zm8.519-15.604c.197-.35.363-.585.486-.733.123-.15.177-.181.146-.159l-4.588-6.554c-1.316.921-2.282,2.218-3.017,3.524l6.973,3.922Zm.485-.794c-.024.015-.023.007.033-.007.06-.016.19-.04.412-.04v-8c-1.612,0-3.262.357-4.74,1.297l4.295,6.75Zm.445-.047h15.552v-8h-15.552v8Zm15.552,0c.313,0,.382.04.295.011-.111-.037-.405-.166-.693-.49l5.979-5.314c-1.616-1.819-3.874-2.207-5.581-2.207v8Zm-.066-.146c-.323-.288-.452-.582-.489-.693-.029-.087.011-.018.011.295h8c0-1.708-.388-3.965-2.207-5.582l-5.315,5.98Zm-.478-.398v62.208h8v-62.208h-8Zm0,62.208c0,.307-.038.404-.024.36.008-.027.033-.095.088-.189.056-.095.136-.204.243-.311l5.657,5.656c1.627-1.626,2.036-3.757,2.036-5.516h-8Zm.307-.14c.317-.317.607-.415.66-.431.027-.008.009,0-.066.009s-.191.018-.357.018v8c1.597,0,3.786-.305,5.42-1.94l-5.657-5.656Zm.237-.404h-14.784v8h14.784v-8Zm-14.784,0c-.166,0-.287-.009-.371-.019s-.119-.02-.114-.019c.01.003.209.063.454.28l-5.315,5.98c1.63,1.448,3.689,1.778,5.346,1.778v-8Zm.301.575c.218.244.278.444.281.454.001.004-.009-.03-.019-.114s-.019-.206-.019-.371h-8c0,1.657.329,3.716,1.778,5.345l5.979-5.314Zm.243-.031v-33.792h-8v33.792h8Zm-7.518-35.696l-5.664,10.464l7.035,3.808l5.664-10.464-7.035-3.808Zm-5.681,10.496c-.328.62-.589.813-.674.865l4.193,6.814c1.579-.972,2.727-2.379,3.551-3.935l-7.07-3.744Zm-.593.817c.029-.017-.203.127-.96.127v8c1.674,0,3.427-.304,4.991-1.217l-4.031-6.91Zm-.96.127h-3.84v8h3.84v-8Zm-3.84,0c-.739,0-1.07-.137-1.176-.194l-3.793,7.044c1.559.839,3.276,1.15,4.969,1.15v-8Zm-.853,0c-.062-.041-.335-.254-.7-.944l-7.07,3.744c.787,1.486,1.857,2.873,3.332,3.856l4.438-6.656Zm-.718-.976l-5.664-10.464-7.035,3.808l5.664,10.464l7.035-3.808Zm-13.181-8.56v33.792h8v-33.792h-8Zm0,33.792c0,.307-.038.404-.024.36.008-.027.033-.095.088-.189.056-.095.136-.204.243-.311l5.657,5.656c1.627-1.626,2.036-3.757,2.036-5.516h-8Zm.307-.14c.317-.317.607-.415.66-.431.027-.008.009,0-.066.009s-.191.018-.357.018v8c1.597,0,3.786-.305,5.42-1.94l-5.657-5.656Zm64.714,2.828l-2.99,2.657.156.176.176.157l2.658-2.99Zm0-67.488l-2.829-2.828v0l2.829,2.828Zm20.64-.192l-2.294,3.277.072.05.074.048l2.148-3.375Zm1.92,2.208l3.501-1.933-.007-.014-.008-.014-3.486,1.961Zm8.64,15.648l-3.502,1.933.005.01l3.497-1.943Zm.768,1.248l-3.2,2.4.17.227.201.201l2.829-2.828Zm2.688,0l-2.829-2.828-.201.201-.17.227l3.2,2.4Zm.864-1.248l3.496,1.943.007-.013.007-.013-3.51-1.917Zm8.544-15.648l-3.487-1.961-.012.022-.012.022l3.511,1.917Zm1.824-2.208l-2.148-3.375-.074.048-.072.05l2.294,3.277Zm20.736.192l-2.99,2.657.156.176.176.157l2.658-2.99Zm0,67.488l2.828,2.828v0l-2.828-2.828Zm-20.064,0l-2.99,2.657.156.176.176.157l2.658-2.99Zm-.768-36.48h4l-7.518-1.904l3.518,1.904Zm-5.664,10.464l-3.518-1.904-.009.016-.009.016l3.536,1.872Zm-2.112,2.4l2.015,3.455.041-.024.04-.024-2.096-3.407Zm-9.888,0l-2.219,3.328.156.105.166.089l1.897-3.522Zm-2.016-2.4l3.535-1.872-.009-.016-.009-.016-3.517,1.904Zm-5.664-10.464l3.517-1.904-7.517,1.904h4Zm-.864,36.48l2.828,2.828v0l-2.828-2.828ZM470.072,227h-14.304v8h14.304v-8Zm-14.304,0c-.166,0-.288-.009-.371-.019-.084-.01-.119-.02-.115-.019.011.003.21.063.455.28l-5.315,5.98c1.63,1.448,3.689,1.778,5.346,1.778v-8Zm.301.575c.218.244.278.444.281.454.001.004-.009-.03-.02-.114-.01-.084-.018-.206-.018-.371h-8c0,1.657.329,3.716,1.778,5.345l5.979-5.314Zm.243-.031v-62.208h-8v62.208h8Zm0-62.208c0-.166.008-.283.018-.357.009-.076.017-.093.009-.067-.016.054-.114.343-.431.66l-5.657-5.656c-1.635,1.634-1.939,3.822-1.939,5.42h8Zm-.404.236c-.108.108-.216.188-.312.244-.093.054-.161.079-.188.088-.044.014.052-.024.36-.024v-8c-1.76,0-3.891.409-5.517,2.036l5.657,5.656Zm-.14.308h15.456v-8h-15.456v8Zm15.456,0c.224,0,.331.025.352.03.013.004-.052-.012-.15-.081l4.587-6.554c-1.493-1.045-3.198-1.395-4.789-1.395v8Zm.348.047c-.032-.021.204.124.581.794l6.973-3.922c-.775-1.378-1.819-2.705-3.259-3.622l-4.295,6.75Zm.566.766l8.64,15.648l7.003-3.866-8.64-15.648-7.003,3.866Zm8.645,15.658c.336.605.701,1.22,1.065,1.705l6.399-4.8c.005.007-.035-.049-.129-.2-.088-.144-.202-.338-.342-.591l-6.993,3.886Zm1.436,2.133c1.055,1.056,2.415,1.556,3.789,1.556v-8c.258,0,.594.045.957.19.368.147.676.362.911.598l-5.657,5.656Zm3.789,1.556h.864v-8h-.864v8Zm.864,0c1.359,0,2.961-.514,4.063-1.984l-6.399-4.8c.306-.409.725-.75,1.215-.967.466-.208.872-.249,1.121-.249v8Zm3.692-1.556c.651-.651,1.154-1.452,1.532-2.133l-6.993-3.886c-.114.206-.197.337-.248.41-.025.035-.035.048-.03.042.003-.004.03-.038.082-.089l5.657,5.656Zm1.546-2.159l8.544-15.648-7.021-3.834-8.544,15.648l7.021,3.834Zm8.52-15.604c.197-.35.363-.585.485-.733.124-.15.178-.181.146-.159l-4.587-6.554c-1.316.921-2.282,2.218-3.017,3.524l6.973,3.922Zm.485-.794c-.025.015-.023.007.032-.007.061-.016.191-.04.413-.04v-8c-1.612,0-3.262.357-4.74,1.297l4.295,6.75Zm.445-.047h15.552v-8h-15.552v8Zm15.552,0c.312,0,.381.04.295.011-.112-.037-.405-.166-.693-.49l5.979-5.314c-1.616-1.819-3.874-2.207-5.581-2.207v8Zm-.066-.146c-.324-.288-.452-.582-.489-.693-.029-.087.011-.018.011.295h8c0-1.708-.388-3.965-2.207-5.582l-5.315,5.98Zm-.478-.398v62.208h8v-62.208h-8Zm0,62.208c0,.307-.039.404-.025.36.009-.027.034-.095.089-.189.056-.095.135-.204.243-.311l5.657,5.656c1.626-1.626,2.036-3.757,2.036-5.516h-8Zm.307-.14c.317-.317.607-.415.66-.431.027-.008.009,0-.066.009s-.192.018-.357.018v8c1.597,0,3.785-.305,5.42-1.94l-5.657-5.656Zm.237-.404h-14.784v8h14.784v-8Zm-14.784,0c-.166,0-.288-.009-.371-.019-.084-.01-.119-.02-.115-.019.011.003.21.063.455.28l-5.315,5.98c1.63,1.448,3.689,1.778,5.346,1.778v-8Zm.301.575c.218.244.278.444.281.454.001.004-.009-.03-.02-.114-.01-.084-.018-.206-.018-.371h-8c0,1.657.329,3.716,1.778,5.345l5.979-5.314Zm.243-.031v-33.792h-8v33.792h8Zm-7.518-35.696l-5.664,10.464l7.035,3.808l5.664-10.464-7.035-3.808Zm-5.682,10.496c-.327.62-.588.813-.673.865l4.193,6.814c1.579-.972,2.726-2.379,3.551-3.935l-7.071-3.744Zm-.592.817c.028-.017-.203.127-.96.127v8c1.674,0,3.427-.304,4.991-1.217l-4.031-6.91Zm-.96.127h-3.84v8h3.84v-8Zm-3.84,0c-.739,0-1.07-.137-1.176-.194l-3.793,7.044c1.558.839,3.275,1.15,4.969,1.15v-8Zm-.854,0c-.061-.041-.335-.254-.699-.944l-7.071,3.744c.788,1.486,1.858,2.873,3.333,3.856l4.437-6.656Zm-.717-.976l-5.664-10.464-7.035,3.808l5.664,10.464l7.035-3.808Zm-13.181-8.56v33.792h8v-33.792h-8Zm0,33.792c0,.307-.039.404-.025.36.009-.027.034-.095.089-.189.056-.095.135-.204.243-.311l5.657,5.656c1.626-1.626,2.036-3.757,2.036-5.516h-8Zm.307-.14c.317-.317.607-.415.66-.431.027-.008.009,0-.066.009s-.192.018-.357.018v8c1.597,0,3.785-.305,5.42-1.94l-5.657-5.656Zm64.713,2.828l-2.989,2.657.156.176.176.157l2.657-2.99Zm0-67.488l-2.828-2.828v0l2.828,2.828Zm49.824,0l-2.989,2.657.156.176.176.157l2.657-2.99Zm-29.088,17.28v-4h-4v4h4Zm0,7.392h-4v4h4v-4Zm21.312.864l-2.989,2.657.156.176.176.157l2.657-2.99ZM555.284,204.6v-4h-4v4h4Zm0,8.256h-4v4h4v-4Zm29.088.864l-2.989,2.657.156.176.176.157l2.657-2.99Zm0,16.512l2.829,2.828v0l-2.829-2.828ZM581.78,227h-44.544v8h44.544v-8Zm-44.544,0c-.165,0-.287-.009-.37-.019-.084-.01-.119-.02-.115-.019.01.003.21.063.455.28l-5.315,5.98c1.63,1.448,3.688,1.778,5.345,1.778v-8Zm.302.575c.217.244.277.444.28.454.002.004-.009-.03-.019-.114s-.019-.206-.019-.371h-8c0,1.657.33,3.716,1.779,5.345l5.979-5.314Zm.242-.031v-62.208h-8v62.208h8Zm0-62.208c0-.166.009-.283.018-.357.01-.076.017-.093.009-.067-.015.054-.113.343-.43.66l-5.657-5.656c-1.635,1.634-1.94,3.822-1.94,5.42h8Zm-.403.236c-.108.108-.217.188-.312.244-.093.054-.162.079-.189.088-.043.014.053-.024.36-.024v-8c-1.759,0-3.89.409-5.516,2.036l5.657,5.656Zm-.141.308h44.544v-8h-44.544v8Zm44.544,0c.313,0,.382.04.295.011-.111-.037-.405-.166-.692-.49l5.979-5.314c-1.617-1.819-3.874-2.207-5.582-2.207v8Zm-.065-.146c-.324-.288-.452-.582-.489-.693-.029-.087.01-.018.01.295h8c0-1.708-.388-3.965-2.206-5.582l-5.315,5.98Zm-.479-.398v11.232h8v-11.232h-8Zm0,11.232c0,.307-.038.404-.024.36.009-.027.034-.095.089-.189.055-.095.135-.204.243-.311l5.657,5.656c1.626-1.626,2.035-3.757,2.035-5.516h-8Zm.308-.14c.317-.317.607-.415.66-.431.027-.008.009,0-.066.009s-.192.018-.358.018v8c1.598,0,3.786-.305,5.421-1.94l-5.657-5.656Zm.236-.404h-26.496v8h26.496v-8Zm-30.496,4v7.392h8v-7.392h-8Zm4,11.392h18.72v-8h-18.72v8Zm18.72,0c.313,0,.382.04.295.011-.111-.037-.405-.166-.692-.49l5.979-5.314c-1.617-1.819-3.874-2.207-5.582-2.207v8Zm-.065-.146c-.324-.288-.452-.582-.489-.693-.029-.087.01-.018.01.295h8c0-1.708-.388-3.965-2.206-5.582l-5.315,5.98Zm-.479-.398v10.272h8v-10.272h-8Zm0,10.272c0,.307-.038.404-.024.36.009-.027.034-.095.089-.189.055-.095.135-.204.243-.311l5.657,5.656c1.626-1.626,2.035-3.757,2.035-5.516h-8Zm.308-.14c.317-.317.607-.415.66-.431.027-.008.009,0-.066.009s-.192.018-.358.018v8c1.598,0,3.786-.305,5.421-1.94l-5.657-5.656Zm.236-.404h-18.72v8h18.72v-8Zm-22.72,4v8.256h8v-8.256h-8Zm4,12.256h26.496v-8h-26.496v8Zm26.496,0c.313,0,.382.04.295.011-.111-.037-.405-.166-.692-.49l5.979-5.314c-1.617-1.819-3.874-2.207-5.582-2.207v8Zm-.065-.146c-.324-.288-.452-.582-.489-.693-.029-.087.01-.018.01.295h8c0-1.708-.388-3.965-2.206-5.582l-5.315,5.98Zm-.479-.398v11.232h8v-11.232h-8Zm0,11.232c0,.307-.038.404-.024.36.009-.027.034-.095.089-.189.055-.095.135-.204.243-.311l5.657,5.656c1.626-1.626,2.035-3.757,2.035-5.516h-8Zm.308-.14c.317-.317.607-.415.66-.431.027-.008.009,0-.066.009s-.192.018-.358.018v8c1.598,0,3.786-.305,5.421-1.94l-5.657-5.656Zm15.817,2.828l-2.99,2.657.156.176.176.157l2.658-2.99Zm0-67.488l-2.829-2.828v0l2.829,2.828Zm52.8,3.936l-2.561,3.073.012.01.013.011l2.536-3.094Zm0,59.52l-2.536-3.094-.013.011-.012.01l2.561,3.073Zm-31.776-45.984v-4h-4v4h4Zm0,32.64h-4v4h4v-4Zm14.784-1.152l-2.829-2.828-.061.061-.059.064l2.949,2.703Zm0-30.336l-2.949,2.703.118.128.128.118l2.703-2.949ZM632.401,227h-32.352v8h32.352v-8Zm-32.352,0c-.166,0-.287-.009-.371-.019s-.119-.02-.114-.019c.01.003.209.063.454.28l-5.315,5.98c1.63,1.448,3.689,1.778,5.346,1.778v-8Zm.301.575c.218.244.278.444.281.454.001.004-.009-.03-.019-.114s-.019-.206-.019-.371h-8c0,1.657.329,3.716,1.778,5.345l5.979-5.314Zm.243-.031v-62.208h-8v62.208h8Zm0-62.208c0-.166.009-.283.018-.357.009-.076.017-.093.009-.067-.016.054-.114.343-.431.66l-5.657-5.656c-1.634,1.634-1.939,3.822-1.939,5.42h8Zm-.404.236c-.107.108-.216.188-.311.244-.094.054-.162.079-.189.088-.044.014.053-.024.36-.024v-8c-1.76,0-3.89.409-5.517,2.036l5.657,5.656Zm-.14.308h32.352v-8h-32.352v8Zm32.352,0c7.591,0,12.399,1.54,15.199,3.873l5.121-6.146c-4.88-4.067-11.911-5.727-20.32-5.727v8Zm15.224,3.894c2.701,2.214,4.392,5.823,4.392,11.69h8c0-7.445-2.214-13.692-7.321-17.878l-5.071,6.188Zm4.392,11.69v29.952h8v-29.952h-8Zm0,29.952c0,5.867-1.691,9.476-4.392,11.69l5.071,6.188c5.107-4.186,7.321-10.433,7.321-17.878h-8ZM647.6,223.127c-2.8,2.333-7.608,3.873-15.199,3.873v8c8.409,0,15.44-1.66,20.32-5.727l-5.121-6.146Zm-33.215-42.911v32.64h8v-32.64h-8Zm4,36.64h11.424v-8h-11.424v8Zm11.424,0c2.121,0,4.548-.528,6.308-2.449l-5.897-5.406c.072-.078.146-.136.207-.175.059-.037.091-.047.076-.042-.039.014-.244.072-.694.072v8Zm6.188-2.324c1.81-1.809,2.324-4.219,2.324-6.38h-8c0,.494-.061.756-.093.854-.026.079-.012-.006.112-.13l5.657,5.656Zm2.324-6.38v-23.328h-8v23.328h8Zm0-23.328c0-2.125-.499-4.617-2.449-6.405l-5.406,5.898c-.09-.083-.153-.164-.192-.228-.037-.06-.044-.089-.036-.064.021.062.083.301.083.799h8Zm-2.204-6.159c-1.76-1.921-4.187-2.449-6.308-2.449v8c.45,0,.655.058.694.072.015.005-.017-.005-.076-.042-.061-.039-.135-.097-.207-.175l5.897-5.406Zm-6.308-2.449h-11.424v8h11.424v-8Zm73.434,54.016l-2.99,2.657.156.176.176.157l2.658-2.99Zm-.768-49.824h4v-4h-4v4Zm-16.8-.768l-2.99,2.657.156.176.176.157l2.658-2.99Zm0-16.896l-2.829-2.828v0l2.829,2.828Zm55.968,0l-2.99,2.657.156.176.176.157l2.658-2.99Zm-16.704,17.664v-4h-4v4h4Zm-.864,49.824l-2.829-2.828v0l2.829,2.828ZM721.483,227h-15.552v8h15.552v-8Zm-15.552,0c-.166,0-.287-.009-.371-.019s-.119-.02-.114-.019c.01.003.209.063.454.28l-5.315,5.98c1.63,1.448,3.689,1.778,5.346,1.778v-8Zm.301.575c.218.244.278.444.281.454.001.004-.009-.03-.019-.114s-.019-.206-.019-.371h-8c0,1.657.329,3.716,1.778,5.345l5.979-5.314Zm.243-.031v-47.136h-8v47.136h8Zm-4-51.136h-14.112v8h14.112v-8Zm-14.112,0c-.166,0-.287-.009-.371-.019s-.119-.02-.114-.019c.01.003.209.063.454.28l-5.315,5.98c1.63,1.448,3.689,1.778,5.346,1.778v-8Zm.301.575c.218.244.278.444.281.454.001.004-.009-.031-.019-.114-.01-.084-.019-.206-.019-.371h-8c0,1.657.329,3.716,1.778,5.345l5.979-5.314Zm.243-.031v-11.616h-8v11.616h8Zm0-11.616c0-.166.009-.283.018-.357.009-.076.017-.093.009-.067-.016.054-.114.343-.431.66l-5.657-5.656c-1.634,1.634-1.939,3.822-1.939,5.42h8Zm-.404.236c-.107.108-.216.188-.311.244-.094.054-.162.079-.189.088-.044.014.053-.024.36-.024v-8c-1.76,0-3.89.409-5.517,2.036l5.657,5.656Zm-.14.308h50.688v-8h-50.688v8Zm50.688,0c.313,0,.382.04.295.011-.111-.037-.405-.166-.693-.49l5.979-5.314c-1.616-1.819-3.874-2.207-5.581-2.207v8Zm-.066-.146c-.323-.288-.452-.582-.489-.693-.029-.087.011-.018.011.295h8c0-1.708-.388-3.965-2.207-5.582l-5.315,5.98Zm-.478-.398v11.616h8v-11.616h-8Zm0,11.616c0,.307-.038.404-.024.36.008-.027.033-.095.088-.189.056-.095.136-.204.243-.311l5.657,5.656c1.627-1.626,2.036-3.757,2.036-5.516h-8Zm.307-.14c.317-.317.607-.415.66-.431.027-.008.009,0-.066.009s-.191.018-.357.018v8c1.597,0,3.786-.305,5.42-1.94l-5.657-5.656Zm.237-.404h-14.112v8h14.112v-8Zm-18.112,4v47.136h8v-47.136h-8Zm0,47.136c0,.307-.038.404-.024.36.008-.027.033-.095.088-.189.056-.095.136-.204.243-.311l5.657,5.656c1.627-1.626,2.036-3.757,2.036-5.516h-8Zm.307-.14c.317-.317.607-.415.66-.431.027-.008.009,0-.066.009s-.191.018-.357.018v8c1.597,0,3.786-.305,5.42-1.94l-5.657-5.656Zm51.809-45.364l-3.655-1.625-.096.217-.07.226l3.821,1.182Zm-4.512,14.592l-3.821-1.182-1.603,5.182h5.424v-4Zm15.072,0v4h5.424l-1.603-5.182-3.821,1.182Zm-4.512-14.592l3.821-1.182-.07-.226-.096-.217-3.655,1.625Zm-.864-1.248l-2.828,2.828.156.157.173.138l2.499-3.123Zm-4.416,0l-2.499-3.123-.173.138-.156.157l2.828,2.828Zm-7.104,49.44l-2.828-2.828v0l2.828,2.828Zm-19.392,0l-2.99,2.657.157.176.176.157l2.657-2.99Zm.096-34.656l-3.875-.994-.012.047-.011.048l3.898.899Zm2.88-8.736l3.733,1.436.002-.004-3.735-1.432Zm8.352-21.792l3.735,1.432.019-.05.018-.051-3.772-1.331Zm1.728-2.4l-2.096-3.407-.062.038-.061.041l2.219,3.328Zm31.968,0l-2.219,3.328.061.041.062.038l2.096-3.407Zm1.824,2.4l-3.772,1.331.018.051.019.05l3.735-1.432Zm8.352,21.792l-3.735,1.432.002.004l3.733-1.436Zm2.784,8.736l-3.898.899.011.048.012.047l3.875-.994Zm.096,34.656l2.828,2.828v0l-2.828-2.828Zm-19.968,0l-2.828,2.828.156.157.173.138l2.499-3.123Zm-.864-16.128h4v-4h-4v4Zm-16.992,0v-4h-4v4h4Zm1.651-33.246l-4.512,14.592l7.642,2.364l4.512-14.592-7.642-2.364Zm-.691,19.774h15.072v-8h-15.072v8Zm18.893-5.182l-4.512-14.592-7.642,2.364l4.512,14.592l7.642-2.364Zm-4.678-15.035c-.389-.874-1.003-1.932-2.02-2.746l-4.998,6.246c-.204-.163-.306-.303-.334-.342-.028-.04-.008-.021.042.092l7.31-3.25Zm-1.691-2.451c-1.055-1.056-2.415-1.556-3.788-1.556v8c-.259,0-.594-.045-.958-.19-.368-.147-.675-.362-.91-.598l5.656-5.656Zm-3.788-1.556h-2.4v8h2.4v-8Zm-2.4,0c-1.356,0-2.577.478-3.555,1.261l4.998,6.246c-.148.119-.358.25-.628.348-.273.1-.553.145-.815.145v-8Zm-3.884,1.556c-.77.769-1.265,1.709-1.595,2.451l7.31,3.25c.037-.082.067-.146.091-.192.025-.048.04-.073.045-.081s-.006.01-.033.046-.08.101-.162.182l-5.656-5.656Zm-7.412,49.58c0,.307-.038.404-.024.36.009-.027.034-.095.088-.189.056-.095.136-.204.244-.311l5.656,5.656c1.627-1.626,2.036-3.757,2.036-5.516h-8Zm.308-.14c.317-.317.606-.415.66-.431.026-.008.009,0-.067.009-.074.009-.191.018-.357.018v8c1.598,0,3.786-.305,5.42-1.94l-5.656-5.656Zm.236-.404h-14.112v8h14.112v-8Zm-14.112,0c-.165,0-.287-.009-.371-.019s-.118-.02-.114-.019c.01.003.21.063.454.28l-5.314,5.98c1.629,1.448,3.688,1.778,5.345,1.778v-8Zm.302.575c.217.244.277.444.28.454.001.004-.009-.03-.019-.114s-.019-.206-.019-.371h-8c0,1.657.33,3.716,1.778,5.345l5.98-5.314Zm.242-.031v-25.344h-8v25.344h8Zm0-25.344c0-1.536.233-3.432.762-5.725l-7.796-1.798c-.623,2.699-.966,5.219-.966,7.523h8Zm.739-5.63c.59-2.302,1.495-5.06,2.738-8.294l-7.466-2.872c-1.317,3.422-2.332,6.488-3.022,9.178l7.75,1.988Zm2.74-8.298l8.352-21.792-7.47-2.864-8.352,21.792l7.47,2.864Zm8.389-21.893c.086-.245.162-.366.194-.41.027-.037.022-.02-.019.007l-4.438-6.656c-1.651,1.101-2.682,2.7-3.281,4.397l7.544,2.662Zm.052-.324c.035-.021.308-.175,1.072-.175v-8c-1.796,0-3.635.358-5.264,1.361l4.192,6.814Zm1.072-.175h25.824v-8h-25.824v8Zm25.824,0c.673,0,.825.142.757.096l4.438-6.656c-1.604-1.07-3.436-1.44-5.195-1.44v8Zm.88.175c-.017-.011-.023-.021-.009-.003.019.025.083.118.157.327l7.544-2.662c-.631-1.788-1.753-3.401-3.5-4.476l-4.192,6.814Zm.185.425l8.352,21.792l7.47-2.864-8.352-21.792-7.47,2.864Zm8.354,21.796c1.236,3.215,2.098,5.941,2.619,8.199l7.796-1.798c-.631-2.734-1.625-5.832-2.949-9.273l-7.466,2.872Zm2.642,8.294c.584,2.274.835,4.137.835,5.63h8c0-2.347-.389-4.9-1.085-7.618l-7.75,1.988Zm.835,5.63v25.344h8v-25.344h-8Zm0,25.344c0,.307-.038.404-.024.36.009-.027.034-.095.088-.189.056-.095.136-.204.244-.311l5.656,5.656c1.627-1.626,2.036-3.757,2.036-5.516h-8Zm.308-.14c.317-.317.606-.415.66-.431.026-.008.009,0-.067.009-.074.009-.191.018-.357.018v8c1.598,0,3.786-.305,5.42-1.94l-5.656-5.656Zm.236-.404h-14.496v8h14.496v-8Zm-14.496,0c-.386,0-.586-.04-.649-.057-.056-.015.073.01.268.166l-4.998,6.246c1.651,1.321,3.672,1.645,5.379,1.645v-8Zm-.052.404c.108.107.188.216.244.311.054.094.079.162.088.189.014.044-.024-.053-.024-.36h-8c0,1.759.409,3.89,2.036,5.516l5.656-5.656Zm.308.14v-13.44h-8v13.44h8Zm-4-17.44h-16.992v8h16.992v-8Zm-20.992,4v13.44h8v-13.44h-8Zm55.309,16.128l-2.99,2.657.157.176.176.157l2.657-2.99Zm0-67.488l-2.828-2.828v0l2.828,2.828Zm20.16,0l-2.99,2.657.157.176.176.157l2.657-2.99Zm.864,23.424h-4v4h4v-4Zm16.032,0v4h4v-4h-4Zm.768-23.424l-2.828-2.828v0l2.828,2.828Zm20.16,0l-2.99,2.657.157.176.176.157l2.657-2.99Zm0,67.488l2.828,2.828v0l-2.828-2.828Zm-20.16,0l-2.99,2.657.157.176.176.157l2.657-2.99Zm-.768-24h4v-4h-4v4Zm-16.032,0v-4h-4v4h4Zm-.864,24l-2.828-2.828v0l2.828,2.828ZM836.46,227h-14.88v8h14.88v-8Zm-14.88,0c-.165,0-.287-.009-.371-.019s-.118-.02-.114-.019c.01.003.21.063.454.28l-5.314,5.98c1.629,1.448,3.688,1.778,5.345,1.778v-8Zm.302.575c.217.244.277.444.28.454.001.004-.009-.03-.019-.114s-.019-.206-.019-.371h-8c0,1.657.33,3.716,1.778,5.345l5.98-5.314Zm.242-.031v-62.208h-8v62.208h8Zm0-62.208c0-.166.009-.283.018-.357.009-.076.017-.093.009-.067-.016.054-.114.343-.431.66l-5.656-5.656c-1.635,1.634-1.94,3.822-1.94,5.42h8Zm-.404.236c-.107.108-.216.188-.311.244-.094.054-.162.079-.189.088-.044.014.053-.024.36-.024v-8c-1.759,0-3.89.409-5.516,2.036l5.656,5.656Zm-.14.308h14.88v-8h-14.88v8Zm14.88,0c.313,0,.382.04.295.011-.111-.037-.405-.166-.693-.49l5.98-5.314c-1.617-1.819-3.874-2.207-5.582-2.207v8Zm-.065-.146c-.324-.288-.453-.582-.49-.693-.029-.087.011-.018.011.295h8c0-1.708-.388-3.965-2.207-5.582l-5.314,5.98Zm-.479-.398v20.832h8v-20.832h-8Zm4,24.832h16.032v-8h-16.032v8Zm20.032-4v-20.832h-8v20.832h8Zm0-20.832c0-.166.009-.283.018-.357.009-.076.017-.093.009-.067-.016.054-.114.343-.431.66l-5.656-5.656c-1.635,1.634-1.94,3.822-1.94,5.42h8Zm-.404.236c-.107.108-.216.188-.311.244-.094.054-.162.079-.189.088-.044.014.053-.024.36-.024v-8c-1.759,0-3.89.409-5.516,2.036l5.656,5.656Zm-.14.308h14.88v-8h-14.88v8Zm14.88,0c.313,0,.382.04.295.011-.111-.037-.405-.166-.693-.49l5.98-5.314c-1.617-1.819-3.874-2.207-5.582-2.207v8Zm-.065-.146c-.324-.288-.453-.582-.49-.693-.029-.087.011-.018.011.295h8c0-1.708-.388-3.965-2.207-5.582l-5.314,5.98Zm-.479-.398v62.208h8v-62.208h-8Zm0,62.208c0,.307-.038.404-.024.36.009-.027.034-.095.088-.189.056-.095.136-.204.244-.311l5.656,5.656c1.627-1.626,2.036-3.757,2.036-5.516h-8Zm.308-.14c.317-.317.606-.415.66-.431.026-.008.009,0-.067.009-.074.009-.191.018-.357.018v8c1.598,0,3.786-.305,5.42-1.94l-5.656-5.656Zm.236-.404h-14.88v8h14.88v-8Zm-14.88,0c-.165,0-.287-.009-.371-.019s-.118-.02-.114-.019c.01.003.21.063.454.28l-5.314,5.98c1.629,1.448,3.688,1.778,5.345,1.778v-8Zm.302.575c.217.244.277.444.28.454.001.004-.009-.03-.019-.114s-.019-.206-.019-.371h-8c0,1.657.33,3.716,1.778,5.345l5.98-5.314Zm.242-.031v-21.312h-8v21.312h8Zm-4-25.312h-16.032v8h16.032v-8Zm-20.032,4v21.312h8v-21.312h-8Zm0,21.312c0,.307-.038.404-.024.36.009-.027.034-.095.088-.189.056-.095.136-.204.244-.311l5.656,5.656c1.627-1.626,2.036-3.757,2.036-5.516h-8Zm.308-.14c.317-.317.606-.415.66-.431.026-.008.009,0-.067.009-.074.009-.191.018-.357.018v8c1.598,0,3.786-.305,5.42-1.94l-5.656-5.656Zm79.8-45.364l-3.655-1.625-.097.217-.07.226l3.822,1.182Zm-4.512,14.592l-3.822-1.182-1.602,5.182h5.424v-4Zm15.072,0v4h5.423l-1.602-5.182-3.821,1.182Zm-4.512-14.592l3.821-1.182-.07-.226-.096-.217-3.655,1.625Zm-.864-1.248l-2.829,2.828.157.157.173.138l2.499-3.123Zm-4.416,0l-2.499-3.123-.173.138-.157.157l2.829,2.828Zm-7.104,49.44l-2.829-2.828v0l2.829,2.828Zm-19.392,0l-2.99,2.657.156.176.176.157l2.658-2.99Zm.096-34.656l-3.875-.994-.012.047-.011.048l3.898.899Zm2.88-8.736l3.733,1.436.002-.004-3.735-1.432Zm8.352-21.792l3.735,1.432.019-.05.018-.051-3.772-1.331Zm1.728-2.4l-2.097-3.407-.062.038-.06.041l2.219,3.328Zm31.968,0l-2.219,3.328.06.041.062.038l2.097-3.407Zm1.824,2.4l-3.772,1.331.018.051.019.05l3.735-1.432Zm8.352,21.792l-3.735,1.432.001.004l3.734-1.436Zm2.784,8.736l-3.898.899.011.048.012.047l3.875-.994Zm.096,34.656l2.828,2.828v0l-2.828-2.828Zm-19.968,0l-2.829,2.828.157.157.173.138l2.499-3.123Zm-.864-16.128h4v-4h-4v4Zm-16.992,0v-4h-4v4h4Zm1.65-33.246L907.69,195.45l7.643,2.364l4.512-14.592-7.643-2.364Zm-.69,19.774h15.072v-8h-15.072v8Zm18.893-5.182l-4.512-14.592-7.643,2.364l4.512,14.592l7.643-2.364Zm-4.678-15.035c-.389-.874-1.003-1.932-2.02-2.746l-4.998,6.246c-.204-.163-.307-.303-.334-.342-.028-.04-.009-.021.042.092l7.31-3.25Zm-1.691-2.451c-1.055-1.056-2.415-1.556-3.788-1.556v8c-.259,0-.594-.045-.958-.19-.368-.147-.675-.362-.911-.598l5.657-5.656Zm-3.788-1.556h-2.4v8h2.4v-8Zm-2.4,0c-1.356,0-2.577.478-3.555,1.261l4.998,6.246c-.149.119-.358.25-.628.348-.274.1-.553.145-.815.145v-8Zm-3.885,1.556c-.769.769-1.264,1.709-1.594,2.451l7.31,3.25c.036-.082.067-.146.091-.192.025-.048.04-.073.044-.081.005-.008-.005.01-.033.046-.027.036-.079.101-.161.182l-5.657-5.656Zm-7.411,49.58c0,.307-.038.404-.024.36.008-.027.033-.095.088-.189.056-.095.136-.204.243-.311l5.657,5.656c1.627-1.626,2.036-3.757,2.036-5.516h-8Zm.307-.14c.317-.317.607-.415.66-.431.027-.008.009,0-.066.009s-.191.018-.357.018v8c1.597,0,3.786-.305,5.42-1.94l-5.657-5.656Zm.237-.404h-14.112v8h14.112v-8Zm-14.112,0c-.166,0-.287-.009-.371-.019s-.119-.02-.114-.019c.01.003.209.063.454.28l-5.315,5.98c1.63,1.448,3.689,1.778,5.346,1.778v-8Zm.301.575c.218.244.278.444.281.454.001.004-.009-.03-.019-.114s-.019-.206-.019-.371h-8c0,1.657.329,3.716,1.778,5.345l5.979-5.314Zm.243-.031v-25.344h-8v25.344h8Zm0-25.344c0-1.536.232-3.432.761-5.725l-7.795-1.798c-.623,2.699-.966,5.219-.966,7.523h8Zm.738-5.63c.591-2.302,1.495-5.06,2.739-8.294l-7.467-2.872c-1.316,3.422-2.331,6.488-3.021,9.178l7.749,1.988Zm2.741-8.298l8.352-21.792-7.47-2.864-8.352,21.792l7.47,2.864Zm8.389-21.893c.086-.245.162-.366.194-.41.027-.037.022-.02-.019.007l-4.438-6.656c-1.652,1.101-2.682,2.7-3.281,4.397l7.544,2.662Zm.052-.324c.034-.021.307-.175,1.072-.175v-8c-1.796,0-3.635.358-5.265,1.361l4.193,6.814Zm1.072-.175h25.824v-8h-25.824v8Zm25.824,0c.673,0,.825.142.757.096l4.438-6.656c-1.604-1.07-3.436-1.44-5.195-1.44v8Zm.879.175c-.016-.011-.022-.021-.008-.003.019.025.083.118.157.327l7.544-2.662c-.631-1.788-1.753-3.401-3.5-4.476l-4.193,6.814Zm.186.425l8.352,21.792l7.47-2.864-8.352-21.792-7.47,2.864Zm8.353,21.796c1.237,3.215,2.099,5.941,2.62,8.199l7.795-1.798c-.631-2.734-1.625-5.832-2.948-9.273l-7.467,2.872Zm2.643,8.294c.583,2.274.835,4.137.835,5.63h8c0-2.347-.389-4.9-1.086-7.618l-7.749,1.988Zm.835,5.63v25.344h8v-25.344h-8Zm0,25.344c0,.307-.038.404-.024.36.008-.027.033-.095.088-.189.056-.095.136-.204.243-.311l5.657,5.656c1.627-1.626,2.036-3.757,2.036-5.516h-8Zm.307-.14c.317-.317.607-.415.66-.431.027-.008.009,0-.066.009s-.191.018-.357.018v8c1.597,0,3.786-.305,5.42-1.94l-5.657-5.656Zm.237-.404h-14.496v8h14.496v-8Zm-14.496,0c-.387,0-.586-.04-.65-.057-.055-.015.074.01.269.166l-4.998,6.246c1.651,1.321,3.671,1.645,5.379,1.645v-8Zm-.052.404c.108.107.188.216.243.311.055.094.08.162.089.189.014.044-.024-.053-.024-.36h-8c0,1.759.409,3.89,2.035,5.516l5.657-5.656Zm.308.14v-13.44h-8v13.44h8Zm-4-17.44h-16.992v8h16.992v-8Zm-20.992,4v13.44h8v-13.44h-8Z" fill="#72261d"/><mask id="eY6JmEtDUZO9" mask-type="luminance" x="-150%" y="-150%" height="400%" width="400%"><rect width="883" height="81" rx="0" ry="0" transform="translate(71 156)" fill="#fff"/><path d="M93.384,231h-14.304c-1.216,0-2.112-.256-2.688-.768-.512-.576-.768-1.472-.768-2.688v-62.208c0-1.216.256-2.08.768-2.592.576-.576,1.472-.864,2.688-.864h15.456c1.024,0,1.856.224,2.496.672.704.448,1.344,1.184,1.92,2.208l8.64,15.648c.32.576.576.992.768,1.248.256.256.576.384.96.384h.864c.384,0,.672-.128.864-.384.256-.256.544-.672.864-1.248l8.544-15.648c.576-1.024,1.184-1.76,1.824-2.208.704-.448,1.568-.672,2.592-.672h15.552c1.216,0,2.08.288,2.592.864.576.512.864,1.376.864,2.592v62.208c0,1.216-.288,2.112-.864,2.688-.512.512-1.376.768-2.592.768h-14.784c-1.216,0-2.112-.256-2.688-.768-.512-.576-.768-1.472-.768-2.688v-33.792l-5.664,10.464c-.576,1.088-1.28,1.888-2.112,2.4-.768.448-1.76.672-2.976.672h-3.84c-1.216,0-2.24-.224-3.072-.672-.768-.512-1.44-1.312-2.016-2.4L96.84,193.752v33.792c0,1.216-.288,2.112-.864,2.688-.512.512-1.376.768-2.592.768Zm122.269-18.144c0,2.944-.448,5.632-1.344,8.064-.832,2.368-2.368,4.416-4.608,6.144-2.176,1.664-5.216,2.976-9.12,3.936-3.84.96-8.736,1.44-14.688,1.44s-10.88-.48-14.784-1.44-6.976-2.272-9.216-3.936c-2.176-1.728-3.712-3.776-4.608-6.144-.832-2.432-1.248-5.12-1.248-8.064v-32.736c0-2.944.416-5.6,1.248-7.968.896-2.432,2.432-4.512,4.608-6.24c2.24-1.728,5.312-3.072,9.216-4.032s8.832-1.44,14.784-1.44s10.848.48,14.688,1.44c3.904.96,6.944,2.304,9.12,4.032c2.24,1.728,3.776,3.808,4.608,6.24.896,2.368,1.344,5.024,1.344,7.968v32.736ZM177.829,209.4c0,1.28.48,2.368,1.44,3.264.96.832,3.168,1.248,6.624,1.248s5.664-.416,6.624-1.248c.96-.896,1.44-1.984,1.44-3.264v-25.824c0-1.216-.48-2.24-1.44-3.072-.96-.896-3.168-1.344-6.624-1.344s-5.664.448-6.624,1.344c-.96.832-1.44,1.856-1.44,3.072v25.824ZM246.21,231h-14.88c-1.216,0-2.112-.256-2.688-.768-.512-.576-.768-1.472-.768-2.688v-62.208c0-1.216.256-2.08.768-2.592.576-.576,1.472-.864,2.688-.864h14.88c1.216,0,2.08.288,2.592.864.576.512.864,1.376.864,2.592v20.832h16.032v-20.832c0-1.216.256-2.08.768-2.592.576-.576,1.472-.864,2.688-.864h14.88c1.216,0,2.08.288,2.592.864.576.512.864,1.376.864,2.592v62.208c0,1.216-.288,2.112-.864,2.688-.512.512-1.376.768-2.592.768h-14.88c-1.216,0-2.112-.256-2.688-.768-.512-.576-.768-1.472-.768-2.688v-21.312h-16.032v21.312c0,1.216-.288,2.112-.864,2.688-.512.512-1.376.768-2.592.768Zm79.564-48.96l-4.512,14.592h15.072l-4.512-14.592c-.256-.576-.544-.992-.864-1.248-.256-.256-.576-.384-.96-.384h-2.4c-.384,0-.736.128-1.056.384-.256.256-.512.672-.768,1.248Zm-5.472,45.504c0,1.216-.288,2.112-.864,2.688-.512.512-1.376.768-2.592.768h-14.112c-1.216,0-2.112-.256-2.688-.768-.512-.576-.768-1.472-.768-2.688v-25.344c0-1.92.288-4.128.864-6.624.64-2.496,1.6-5.408,2.88-8.736l8.352-21.792c.384-1.088.96-1.888,1.728-2.4.832-.512,1.888-.768,3.168-.768h25.824c1.216,0,2.208.256,2.976.768.832.512,1.44,1.312,1.824,2.4l8.352,21.792c1.28,3.328,2.208,6.24,2.784,8.736.64,2.496.96,4.704.96,6.624v25.344c0,1.216-.288,2.112-.864,2.688-.512.512-1.376.768-2.592.768h-14.496c-1.28,0-2.24-.256-2.88-.768-.576-.576-.864-1.472-.864-2.688v-13.44h-16.992v13.44ZM388.603,231h-14.304c-1.216,0-2.112-.256-2.688-.768-.512-.576-.768-1.472-.768-2.688v-62.208c0-1.216.256-2.08.768-2.592.576-.576,1.472-.864,2.688-.864h15.456c1.024,0,1.856.224,2.496.672.704.448,1.344,1.184,1.92,2.208l8.64,15.648c.32.576.576.992.768,1.248.256.256.576.384.96.384h.864c.384,0,.672-.128.864-.384.256-.256.544-.672.864-1.248l8.544-15.648c.576-1.024,1.184-1.76,1.824-2.208.704-.448,1.568-.672,2.592-.672h15.552c1.216,0,2.08.288,2.592.864.576.512.864,1.376.864,2.592v62.208c0,1.216-.288,2.112-.864,2.688-.512.512-1.376.768-2.592.768h-14.784c-1.216,0-2.112-.256-2.688-.768-.512-.576-.768-1.472-.768-2.688v-33.792l-5.664,10.464c-.576,1.088-1.28,1.888-2.112,2.4-.768.448-1.76.672-2.976.672h-3.84c-1.216,0-2.24-.224-3.072-.672-.768-.512-1.44-1.312-2.016-2.4l-5.664-10.464v33.792c0,1.216-.288,2.112-.864,2.688-.512.512-1.376.768-2.592.768Zm81.469,0h-14.304c-1.216,0-2.112-.256-2.688-.768-.512-.576-.768-1.472-.768-2.688v-62.208c0-1.216.256-2.08.768-2.592.576-.576,1.472-.864,2.688-.864h15.456c1.024,0,1.856.224,2.496.672.704.448,1.344,1.184,1.92,2.208l8.64,15.648c.32.576.576.992.768,1.248.256.256.576.384.96.384h.864c.384,0,.672-.128.864-.384.256-.256.544-.672.864-1.248l8.544-15.648c.576-1.024,1.184-1.76,1.824-2.208.704-.448,1.568-.672,2.592-.672h15.552c1.216,0,2.08.288,2.592.864.576.512.864,1.376.864,2.592v62.208c0,1.216-.288,2.112-.864,2.688-.512.512-1.376.768-2.592.768h-14.784c-1.216,0-2.112-.256-2.688-.768-.512-.576-.768-1.472-.768-2.688v-33.792l-5.664,10.464c-.576,1.088-1.28,1.888-2.112,2.4-.768.448-1.76.672-2.976.672h-3.84c-1.216,0-2.24-.224-3.072-.672-.768-.512-1.44-1.312-2.016-2.4l-5.664-10.464v33.792c0,1.216-.288,2.112-.864,2.688-.512.512-1.376.768-2.592.768Zm111.708,0h-44.544c-1.216,0-2.112-.256-2.688-.768-.512-.576-.768-1.472-.768-2.688v-62.208c0-1.216.256-2.08.768-2.592.576-.576,1.472-.864,2.688-.864h44.544c1.216,0,2.08.288,2.592.864.576.512.864,1.376.864,2.592v11.232c0,1.216-.288,2.112-.864,2.688-.512.512-1.376.768-2.592.768h-26.496v7.392h18.72c1.216,0,2.08.288,2.592.864.576.512.864,1.376.864,2.592v10.272c0,1.216-.288,2.112-.864,2.688-.512.512-1.376.768-2.592.768h-18.72v8.256h26.496c1.216,0,2.08.288,2.592.864.576.512.864,1.376.864,2.592v11.232c0,1.216-.288,2.112-.864,2.688-.512.512-1.376.768-2.592.768Zm50.621,0h-32.352c-1.216,0-2.112-.256-2.688-.768-.512-.576-.768-1.472-.768-2.688v-62.208c0-1.216.256-2.08.768-2.592.576-.576,1.472-.864,2.688-.864h32.352c8,0,13.92,1.6,17.76,4.8c3.904,3.2,5.856,8.128,5.856,14.784v29.952c0,6.656-1.952,11.584-5.856,14.784-3.84,3.2-9.76,4.8-17.76,4.8Zm-14.016-50.784v32.64h11.424c1.536,0,2.656-.384,3.36-1.152.768-.768,1.152-1.952,1.152-3.552v-23.328c0-1.6-.384-2.752-1.152-3.456-.704-.768-1.824-1.152-3.36-1.152h-11.424ZM721.483,231h-15.552c-1.216,0-2.112-.256-2.688-.768-.512-.576-.768-1.472-.768-2.688v-47.136h-14.112c-1.216,0-2.112-.256-2.688-.768-.512-.576-.768-1.472-.768-2.688v-11.616c0-1.216.256-2.08.768-2.592.576-.576,1.472-.864,2.688-.864h50.688c1.216,0,2.08.288,2.592.864.576.512.864,1.376.864,2.592v11.616c0,1.216-.288,2.112-.864,2.688-.512.512-1.376.768-2.592.768h-14.112v47.136c0,1.216-.288,2.112-.864,2.688-.512.512-1.376.768-2.592.768Zm51.572-48.96l-4.512,14.592h15.072l-4.512-14.592c-.256-.576-.544-.992-.864-1.248-.256-.256-.576-.384-.96-.384h-2.4c-.384,0-.736.128-1.056.384-.256.256-.512.672-.768,1.248Zm-5.472,45.504c0,1.216-.288,2.112-.864,2.688-.512.512-1.376.768-2.592.768h-14.112c-1.216,0-2.112-.256-2.688-.768-.512-.576-.768-1.472-.768-2.688v-25.344c0-1.92.288-4.128.864-6.624.64-2.496,1.6-5.408,2.88-8.736l8.352-21.792c.384-1.088.96-1.888,1.728-2.4.832-.512,1.888-.768,3.168-.768h25.824c1.216,0,2.208.256,2.976.768.832.512,1.44,1.312,1.824,2.4l8.352,21.792c1.28,3.328,2.208,6.24,2.784,8.736.64,2.496.96,4.704.96,6.624v25.344c0,1.216-.288,2.112-.864,2.688-.512.512-1.376.768-2.592.768h-14.496c-1.28,0-2.24-.256-2.88-.768-.576-.576-.864-1.472-.864-2.688v-13.44h-16.992v13.44ZM836.46,231h-14.88c-1.216,0-2.112-.256-2.688-.768-.512-.576-.768-1.472-.768-2.688v-62.208c0-1.216.256-2.08.768-2.592.576-.576,1.472-.864,2.688-.864h14.88c1.216,0,2.08.288,2.592.864.576.512.864,1.376.864,2.592v20.832h16.032v-20.832c0-1.216.256-2.08.768-2.592.576-.576,1.472-.864,2.688-.864h14.88c1.216,0,2.08.288,2.592.864.576.512.864,1.376.864,2.592v62.208c0,1.216-.288,2.112-.864,2.688-.512.512-1.376.768-2.592.768h-14.88c-1.216,0-2.112-.256-2.688-.768-.512-.576-.768-1.472-.768-2.688v-21.312h-16.032v21.312c0,1.216-.288,2.112-.864,2.688-.512.512-1.376.768-2.592.768Zm79.564-48.96l-4.512,14.592h15.072l-4.512-14.592c-.256-.576-.544-.992-.864-1.248-.256-.256-.576-.384-.96-.384h-2.4c-.384,0-.736.128-1.056.384-.256.256-.512.672-.768,1.248Zm-5.472,45.504c0,1.216-.288,2.112-.864,2.688-.512.512-1.376.768-2.592.768h-14.112c-1.216,0-2.112-.256-2.688-.768-.512-.576-.768-1.472-.768-2.688v-25.344c0-1.92.288-4.128.864-6.624.64-2.496,1.6-5.408,2.88-8.736l8.352-21.792c.384-1.088.96-1.888,1.728-2.4.832-.512,1.888-.768,3.168-.768h25.824c1.216,0,2.208.256,2.976.768.832.512,1.44,1.312,1.824,2.4l8.352,21.792c1.28,3.328,2.208,6.24,2.784,8.736.64,2.496.96,4.704.96,6.624v25.344c0,1.216-.288,2.112-.864,2.688-.512.512-1.376.768-2.592.768h-14.496c-1.28,0-2.24-.256-2.88-.768-.576-.576-.864-1.472-.864-2.688v-13.44h-16.992v13.44Z"/></mask></g></g><rect width="10" height="29" rx="3" ry="3" transform="translate(181 182)" fill="#5f2018"/><path d="M621,183h7c1.657,0,3,1.343,3,3v21c0,1.657-1.343,3-3,3h-7v-27Z" fill="#5f2018"/><rect width="8" height="8" rx="3" ry="3" transform="translate(772 186)" fill="#72261d"/><rect width="8" height="8" rx="3" ry="3" transform="translate(915 186)" fill="#72261d"/><rect width="8" height="8" rx="3" ry="3" transform="translate(325 186)" fill="#72261d"/></g></g></svg>
